<svg xmlns="http://www.w3.org/2000/svg" viewBox="0 0 39.73 24.3"><title>icon-truck</title><path d="M9.76,15.19a4.56,4.56,0,1,0,4.56,4.56A4.56,4.56,0,0,0,9.76,15.19Zm0,6.42a1.86,1.86,0,1,1,1.86-1.86A1.86,1.86,0,0,1,9.76,21.61Z" style="fill:#231f20"/><path d="M30.38,15.19a4.56,4.56,0,1,0,4.56,4.56A4.56,4.56,0,0,0,30.38,15.19Zm0,6.42a1.86,1.86,0,1,1,1.86-1.86A1.86,1.86,0,0,1,30.38,21.61Z" style="fill:#231f20"/><path d="M39.65,2.39A2.37,2.37,0,0,0,37.18,0C34.7,0,14.36.24,14.36.24L1.52,12A6.89,6.89,0,0,0,0,16.51c.08,2.79,2.47,3.27,4.15,3.27H5s0,0,0,0a4.81,4.81,0,1,1,9.61,0s0,.05,0,.08l11,.05s0-.09,0-.14a4.81,4.81,0,1,1,9.61,0c0,.06,0,.12,0,.18h2s2.55-.32,2.55-2.71S39.65,2.39,39.65,2.39ZM8.86,10.67c-2.66,0-.26-2.28-.26-2.28l3.66-3.64,4.28,0,.05,5.89Zm18.51,0H18.67V4.79h8.69Z" style="fill:#231f20"/></svg>