<svg xmlns="http://www.w3.org/2000/svg" viewBox="0 0 14.74 22.53"><title>icon-money</title><path d="M9,20.08v2.45H5.77V20.08H4.09c-1.53,0-2.48-.2-3.09-.82s-1-1.79-1-5H3.86c.05,1.69.13,2.15.28,2.32s.46.23,1.23.23h.82V12.75l-2.53-.26a3.84,3.84,0,0,1-2.5-.95C.46,10.86.2,9.89.2,7.46S.56,3.86,1.38,3A3.81,3.81,0,0,1,4.16,2.2H5.77V0H9V2.2h1.33c1.56,0,2.48.23,3,.79.77.77,1,1.69,1.07,4.8H10.6c-.05-1.51-.13-1.94-.31-2.12s-.38-.23-1.07-.23H8.61V9.37l2.68.26a3.84,3.84,0,0,1,2.45.92c.69.69,1,1.69,1,4.09s-.36,3.78-1.18,4.6a2.92,2.92,0,0,1-2.48.84Zm-2.84-11V5.44H5.44c-.64,0-.89.05-1,.2s-.26.74-.26,1.63.05,1.28.26,1.48.43.2,1.23.31ZM8.61,13v3.86H9.3c.74,0,1-.08,1.2-.23a3.39,3.39,0,0,0,.26-1.79c0-.82-.05-1.23-.26-1.43a2.25,2.25,0,0,0-1.23-.33Z" style="fill:#231f20"/></svg>