<svg xmlns="http://www.w3.org/2000/svg" viewBox="0 0 25.22 34.25"><title>icon-phone</title><path d="M6.52,8.64,1.92,2.4S1.1,2.46.55,3.89s-1.23,6.72,1,10.41,6.72,9.37,10.43,11.45,9,1.49,9,1.49l-4.39-5.88a8.35,8.35,0,0,1-6.39-3c-2.4-3.15-6.11-6.77-3.64-9.69" style="fill:#231f20"/><path d="M3.11,1.28l2-1.12A1.32,1.32,0,0,1,6.78.47l3.48,4.67a1,1,0,0,1-.36,1.43l-2,1.12a1.31,1.31,0,0,1-1.65-.31L2.76,2.71a1,1,0,0,1,.36-1.43" style="fill:#231f20"/><path d="M25,24.24,21.66,19.7a1.28,1.28,0,0,0-1.6-.3l-2,1.09a.93.93,0,0,0-.35,1.39l3.37,4.54a1.27,1.27,0,0,0,1.6.3l.05,0c.42,1.6,1,5.06-.84,6.8-2.18,2,3.93.12,1.69-7.28l1.05-.59A.93.93,0,0,0,25,24.24Z" style="fill:#231f20"/></svg>